<?xml version="1.0" standalone="no"?><!DOCTYPE svg PUBLIC "-//W3C//DTD SVG 1.1//EN" "http://www.w3.org/Graphics/SVG/1.1/DTD/svg11.dtd"><svg class="icon" width="200px" height="199.80px" viewBox="0 0 1025 1024" version="1.1" xmlns="http://www.w3.org/2000/svg"><path d="M513.5 0c282.8 0 512 229.2 512 512s-229.2 512-512 512-512-229.2-512-512S230.7 0 513.5 0z" fill="#3E5BF2" /><path d="M513.5 198.8c42.3 0 83.3 8.3 121.9 24.6 37.3 15.8 70.8 38.4 99.6 67.1 28.8 28.8 51.4 62.3 67.1 99.6 16.3 38.6 24.6 79.6 24.6 121.9s-8.3 83.3-24.6 121.9c-15.8 37.3-38.4 70.8-67.1 99.6-28.8 28.8-62.3 51.4-99.6 67.1-38.6 16.3-79.6 24.6-121.9 24.6s-83.3-8.3-121.9-24.6c-37.3-15.8-70.8-38.4-99.6-67.1-28.8-28.8-51.4-62.3-67.1-99.6-16.3-38.6-24.6-79.6-24.6-121.9s8.3-83.3 24.6-121.9c15.8-37.3 38.4-70.8 67.1-99.6 28.8-28.8 62.3-51.4 99.6-67.1 38.6-16.3 79.6-24.6 121.9-24.6m0-30C324 168.8 170.3 322.5 170.3 512s153.6 343.2 343.2 343.2S856.7 701.5 856.7 512 703 168.8 513.5 168.8z" fill="#FFFFFF" /><path d="M513.7 308.8c31.6 0 53.6 27.4 63.7 53.8l115.9 303.1c9.1 23.8-8.5 49.3-34 49.3-15.9 0-30.2-10-35.6-25l-26.9-74c-0.1-0.2-0.2-0.3-0.4-0.3H431c-0.2 0-0.3 0.1-0.4 0.3l-28.4 78.2c-4.6 12.6-16.5 20.9-29.9 20.9h-5.9c-24.7 0-41.8-24.8-32.9-47.8L450 362.7c10.2-26.4 31.5-53.9 63.7-53.9z m-63 253.7h126c0.3 0 0.4-0.3 0.4-0.5l-61.6-172.2c-0.2-0.6-0.8-1-1.5-1s-1.3 0.4-1.5 1L450.4 562c-0.1 0.2 0.1 0.5 0.3 0.5z" fill="#FFFFFF" /><path d="M666.2 474.3H575c-9.4 0-17-7.6-17-17s7.6-17 17-17h91.2c9.4 0 17 7.6 17 17s-7.6 17-17 17zM666.2 539.6h-68.4c-9.4 0-17-7.6-17-17s7.6-17 17-17h68.4c9.4 0 17 7.6 17 17s-7.6 17-17 17zM355.7 474.3h91.2c9.4 0 17-7.6 17-17s-7.6-17-17-17h-91.2c-9.4 0-17 7.6-17 17s7.6 17 17 17zM355.7 539.6h68.4c9.4 0 17-7.6 17-17s-7.6-17-17-17h-68.4c-9.4 0-17 7.6-17 17s7.6 17 17 17z" fill="#FFFFFF" /></svg>