<?xml version="1.0" encoding="UTF-8"?>
<svg id="_图层_1" data-name="图层_1" xmlns="http://www.w3.org/2000/svg" xmlns:xlink="http://www.w3.org/1999/xlink" version="1.1" viewBox="0 0 1024 1024">
  <!-- Generator: Adobe Illustrator 30.2.1, SVG Export Plug-In . SVG Version: 2.1.1 Build 1)  -->
  <defs>
    <style>
      .st0 {
        fill: url(#_未命名的渐变_2);
      }

      .st1 {
        fill: url(#_未命名的渐变_4);
      }

      .st2 {
        fill: url(#_未命名的渐变_3);
      }

      .st3 {
        fill: url(#_未命名的渐变_7);
      }

      .st4 {
        fill: #a4c1fb;
      }

      .st5 {
        fill: url(#_未命名的渐变);
      }

      .st6 {
        fill: url(#_未命名的渐变_5);
        stroke: url(#_未命名的渐变_6);
        stroke-width: 19.28px;
      }

      .st7 {
        fill: #e7f0fe;
      }

      .st8 {
        fill: url(#_未命名的渐变_8);
        stroke: url(#_未命名的渐变_9);
        stroke-width: 4.7px;
      }

      .st9 {
        fill: #86daff;
      }

      .st10 {
        fill: #fff;
        fill-opacity: .77;
      }

      .st11 {
        filter: url(#filter1_f_132_10470);
      }

      .st12 {
        fill: #d8e4fe;
      }
    </style>
    <linearGradient id="_未命名的渐变" data-name="未命名的渐变" x1="468.87" y1="446.27" x2="468.87" y2="-80.58" gradientTransform="translate(-345915.79 275599.59) scale(738.88 -526.86)" gradientUnits="userSpaceOnUse">
      <stop offset="0" stop-color="#fff" stop-opacity="0"/>
      <stop offset="1" stop-color="#e5ebfd"/>
    </linearGradient>
    <linearGradient id="_未命名的渐变_2" data-name="未命名的渐变 2" x1="1355.1" y1="523.16" x2="619.89" y2="523.16" gradientTransform="translate(-344192.94 159127.72) scale(735.21 -302.76)" gradientUnits="userSpaceOnUse">
      <stop offset="0" stop-color="#5192f7"/>
      <stop offset=".23" stop-color="#9ac4fd"/>
      <stop offset=".48" stop-color="#4085f7"/>
      <stop offset=".72" stop-color="#9ac4fd"/>
      <stop offset="1" stop-color="#326fee"/>
    </linearGradient>
    <linearGradient id="_未命名的渐变_3" data-name="未命名的渐变 3" x1="643.96" y1="523.6" x2="1344.3" y2="523.6" gradientTransform="translate(-344192.87 125585.98) scale(735.21 -238.51)" gradientUnits="userSpaceOnUse">
      <stop offset="0" stop-color="#4982da"/>
      <stop offset="1" stop-color="#3168dc"/>
    </linearGradient>
    <linearGradient id="_未命名的渐变_4" data-name="未命名的渐变 4" x1="1355.1" y1="523.16" x2="619.89" y2="523.16" gradientTransform="translate(-344192.94 159048.64) scale(735.21 -302.77)" gradientUnits="userSpaceOnUse">
      <stop offset="0" stop-color="#8fbdf7"/>
      <stop offset=".51" stop-color="#9ac4fd"/>
      <stop offset="1" stop-color="#dae7fe"/>
    </linearGradient>
    <linearGradient id="_未命名的渐变_5" data-name="未命名的渐变 5" x1="643.93" y1="523.79" x2="1344.27" y2="523.79" gradientTransform="translate(-328244.18 115450.47) scale(701.24 -219.24)" gradientUnits="userSpaceOnUse">
      <stop offset="0" stop-color="#e3eefe"/>
      <stop offset="1" stop-color="#cce1fb"/>
    </linearGradient>
    <linearGradient id="_未命名的渐变_6" data-name="未命名的渐变 6" x1="640.72" y1="523.79" x2="1344.27" y2="523.79" gradientTransform="translate(-328244.18 115450.47) scale(701.24 -219.24)" gradientUnits="userSpaceOnUse">
      <stop offset="0" stop-color="#fff"/>
      <stop offset=".26" stop-color="#f0f4ff"/>
      <stop offset=".49" stop-color="#fff"/>
      <stop offset=".78" stop-color="#ddebfd"/>
      <stop offset="1" stop-color="#fff"/>
    </linearGradient>
    <filter id="filter1_f_132_10470" x="339.197" y="562.386" width="349.785" height="124.505005">
      <feFlood flood-color="#000000" flood-opacity="0" result="BackgroundImageFix"/>
      <feBlend in="SourceGraphic" in2="BackgroundImageFix" result="shape"/>
      <feGaussianBlur in="shape" result="effect1_foregroundBlur_132_10470" stdDeviation="15.7662 15.7662"/>
    </filter>
    <linearGradient id="_未命名的渐变_7" data-name="未命名的渐变 7" x1="548.76" y1="249.54" x2="670.19" y2="-162.85" gradientTransform="translate(-187379.8 215335.74) scale(401.19 -411.21)" gradientUnits="userSpaceOnUse">
      <stop offset="0" stop-color="#2780df"/>
      <stop offset=".38" stop-color="#2677fd"/>
      <stop offset=".67" stop-color="#deebff"/>
      <stop offset="1" stop-color="#1f63fb"/>
    </linearGradient>
    <linearGradient id="_未命名的渐变_8" data-name="未命名的渐变 8" x1="1176.69" y1="383.9" x2="848.09" y2="448.31" gradientTransform="translate(-164884.23 203287.02) scale(353.23 -388.08)" gradientUnits="userSpaceOnUse">
      <stop offset="0" stop-color="#80cafc"/>
      <stop offset="1" stop-color="#359dfe"/>
    </linearGradient>
    <linearGradient id="_未命名的渐变_9" data-name="未命名的渐变 9" x1="501.36" y1="252.46" x2="544.97" y2="-102.77" gradientTransform="translate(-164884.23 203287.02) scale(353.23 -388.08)" gradientUnits="userSpaceOnUse">
      <stop offset="0" stop-color="#b1edff"/>
      <stop offset="1" stop-color="#78c3ff"/>
    </linearGradient>
  </defs>
  <g id="sillyvg_g_0">
    <g id="sillyvg_g_1">
      <path class="st7" d="M530.71,675.38c0-9.86,9.46-16.96,18.93-14.23l399.41,115.4c3.3.96,5.57,3.98,5.57,7.41v14.79c0,.66-.08,1.29-.24,1.89.09.21.17.41.24.63v-13.13c0-4.99,5.57-7.55,5.57-2.56v.52c.01-.17.02-.35.02-.52v30.84c0,.2-.01.39-.03.57-.2,2.85-1.92,5.6-5.19,6.72l-5.15,1.76s-.04.01-.06.02l-391.54,134.16s-.04,0-.06.02l-19.26,6.6c-3.25,1.12-6.57,1.98-9.92,2.6-.05.01-.1.02-.15.03-7.92,1.44-16.02,1.49-23.95.16-.04-.01-.07-.02-.11-.02-.37-.07-.75-.13-1.12-.2-.02-.01-.04-.01-.07-.02-3.35-.63-6.68-1.51-9.94-2.64l-410.53-142.57c-3.47-1.2-5.18-4.24-5.18-7.27v-30.84c0-4.84,5.27-2.54,5.49,2.2v-3.85c0-3.41,2.23-6.41,5.5-7.39l383.6-114.89c9.47-2.83,19.01,4.26,19.01,14.16,0,6.52-4.29,12.27-10.54,14.15l10.54-3.16c12.77-3.83,26.37-3.89,39.17-.19l335.02,96.79-324.32-93.7c-6.34-1.84-10.71-7.64-10.71-14.24ZM955,809.12h0v-3.68h0s0,3.68,0,3.68ZM83.13,805.25v3.79h0v-3.8h0ZM83.45,801.42c.07-.26.16-.52.27-.77-.16-.57-.25-1.18-.27-1.81v2.58ZM502.3,653.57c5.81-.78,11.7-.81,17.52-.11,6.55.8,10.91,6.77,10.91,13.37,0,9.86-9.67,16.93-19.53,16.97-9.89.04-19.64-7.04-19.64-16.93,0-6.52,4.27-12.44,10.74-13.3Z"/>
      <path class="st12" d="M491.55,655.87c12.77-3.82,26.37-3.89,39.17-.19l423.91,122.48c7.24,2.09,7.49,12.26.36,14.7l-416.07,142.57c-14.67,5.02-30.61,4.99-45.26-.1l-410.53-142.56c-7.07-2.46-6.85-12.52.32-14.67l408.1-122.23Z"/>
      <path class="st5" d="M149.93,76.68h738.88v526.86H149.93V76.68Z"/>
      <path class="st9" d="M512.43,603.53c9.85-.06,16.42,9.06,16.42,18.9v23.84c.36-20.24,19.87-34.72,39.42-29.08l309.18,89.34c2.75.79,4.64,3.31,4.64,6.17v14.46s0,.02,0,.03v-11.01c0-4.16,4.64-6.29,4.64-2.13v64.25c0-.15,0-.29-.01-.43v.09c0,.11.01.23.01.34,0,2.54-1.44,5.07-4.34,6.07l-4.31,1.48s-.03.01-.04.01l-302.14,103.53s-.05.01-.07.02l-40.17,13.76c-6.08,2.09-12.42,3.13-18.76,3.13h-.14c-.08,0-.16-.01-.25-.01-6.28-.04-12.55-1.1-18.56-3.19l-39.78-13.82c-.18-.05-.36-.12-.54-.18l-297.49-103.31c-.08-.03-.16-.06-.24-.09l-4.06-1.41c-2.89-1-4.32-3.53-4.32-6.06v-64.25c0-3.98,4.3-2.15,4.57,1.71v-3.09c0-2.84,1.86-5.34,4.58-6.15l295.9-88.63c19.74-5.91,39.61,8.88,39.61,29.49,0,13.59-8.93,25.58-21.95,29.48l-237.84,71.23h0l259.8-77.81c5.31-1.59,10.78-2.4,16.27-2.43-8.25-.03-16.27-5.95-16.27-14.19v-31.17c0-9.77,6.46-18.82,16.23-18.89ZM528.85,653.59c0,8.21-7.96,14.12-16.17,14.19,5.44-.01,10.88.75,16.16,2.27l22.26,6.44c-12.96-3.76-21.95-15.5-22.25-28.94v6.04Z"/>
      <path class="st0" d="M512.43,584.26c9.85-.06,16.42,9.05,16.42,18.9v23.83c.36-20.24,19.87-34.72,39.42-29.07l309.18,89.33c2.75.8,4.64,3.31,4.64,6.17v14.47s0,.02,0,.03v-11.01c0-4.16,4.64-6.29,4.64-2.13v64.25c0-.15,0-.29-.01-.44v.1c0,.11.01.22.01.33,0,2.54-1.44,5.08-4.34,6.08l-346.73,118.8c-12.22,4.19-25.5,4.16-37.71-.08l-39.96-13.87c-.12-.04-.24-.08-.36-.12l-297.49-103.31s-.09-.04-.13-.05l-4.17-1.45c-2.89-1-4.32-3.53-4.32-6.06v-64.25c0-3.99,4.3-2.15,4.57,1.7v-3.08c0-2.84,1.86-5.34,4.58-6.16l295.9-88.62c19.74-5.91,39.61,8.87,39.61,29.48,0,13.59-8.93,25.58-21.95,29.48l-237.84,71.23h0s259.8-77.8,259.8-77.8c10.64-3.19,21.97-3.24,32.64-.16l271.08,78.32h0l-248.79-71.88c-12.98-3.75-21.98-15.49-22.28-28.94v6.04c0,8.24-8.01,14.16-16.25,14.19-8.29.03-16.4-5.91-16.4-14.2v-31.16c0-9.77,6.46-18.83,16.23-18.89Z"/>
      <path class="st2" d="M496.18,581.83c10.64-3.18,21.97-3.24,32.64-.16l353.26,102.07c6.03,1.74,6.24,10.21.3,12.25l-346.73,118.8c-12.22,4.19-25.5,4.17-37.71-.07l-342.11-118.81c-5.89-2.04-5.71-10.43.26-12.22l340.09-101.86Z"/>
      <path class="st1" d="M512.43,499.97c9.85-.06,16.42,9.05,16.42,18.9v23.84c.36-20.24,19.87-34.72,39.42-29.08l309.18,89.34c2.75.79,4.64,3.31,4.64,6.17v14.46s0,.02,0,.03v-11.01c0-4.15,4.64-6.29,4.64-2.13v64.25c0-.14,0-.28-.01-.43v.09c0,.12.01.23.01.34,0,2.54-1.44,5.08-4.34,6.07l-346.73,118.81c-12.22,4.19-25.5,4.16-37.71-.08l-39.94-13.87c-.13-.04-.25-.08-.38-.13l-297.49-103.31c-.06-.02-.11-.04-.17-.06l-4.13-1.44c-2.89-1-4.32-3.53-4.32-6.06v-64.25c0-3.98,4.3-2.15,4.57,1.71v-3.09c0-2.84,1.86-5.34,4.58-6.15l295.9-88.63c19.74-5.91,39.61,8.88,39.61,29.49,0,13.59-8.93,25.58-21.95,29.48l-237.84,71.23h0l259.8-77.81c10.64-3.18,21.97-3.24,32.64-.15l271.07,78.32h.01l-248.79-71.88c-12.98-3.75-21.98-15.5-22.28-28.95v6.04c0,8.24-8.01,14.16-16.25,14.19-8.29.03-16.4-5.91-16.4-14.2v-31.16c0-9.77,6.46-18.83,16.23-18.89Z"/>
      <path class="st6" d="M532.53,722.15c-10.19,3.49-21.25,3.47-31.43-.06l-332.72-115.55,330.57-99c8.86-2.66,18.31-2.7,27.2-.13l343.47,99.24-337.09,115.5Z"/>
      <path class="st10" d="M502.05,541.74c6.28-1.88,12.98-1.91,19.28-.09l208.74,60.31c3.56,1.03,3.69,6.04.17,7.24l-204.87,70.2c-7.23,2.48-15.07,2.46-22.29-.05l-202.15-70.2c-3.48-1.21-3.37-6.16.16-7.22l200.96-60.19Z"/>
      <g class="st11">
        <ellipse class="st4" cx="514.09" cy="624.64" rx="143.36" ry="30.72"/>
      </g>
      <path class="st3" d="M692.61,368.88c2.44-.31,4.78-.1,6.9.54.29.08.57.18.85.28.15.05.3.11.45.17,5.76,2.29,9.69,7.86,9.69,14.84h0v132.51h0c0,8.16-5.37,15.71-12.75,18.85l-43.29,18.37s.08-.04.13-.06l-.13.06c-1.63.69-3.36,1.17-5.14,1.39l9.83-4.18s0-.01,0-.01l-9.85,4.19-131.52,16.14h0c-7.76.96-14.37-3.21-16.84-9.86l-37.07,15.73c-1.63.69-3.35,1.17-5.14,1.39l9.81-4.17h0l-9.82,4.17-131.53,16.15,43.3-18.38,105.43-12.95h0l-105.43,12.95h-.01l-43.29,18.38c-9.88,1.21-17.89-5.88-17.89-15.84v-132.51c0-8.16,5.37-15.71,12.75-18.84l.11-.05s-.07.03-.11.05l43.29-18.38c1.27-.54,2.59-.94,3.96-1.2.39-.07.78-.14,1.19-.18h0l131.52-16.16h.01c5.92-.72,11.18,1.54,14.44,5.62.36.46.71.94,1.02,1.44.14.23.28.46.41.69.37.68.7,1.38.97,2.12l37.06-15.73c-.07.03-.15.07-.23.1h.04c.07-.04.13-.07.19-.1,1.63-.69,3.36-1.17,5.15-1.39l131.53-16.14ZM367.2,577.1c.19.01.38.02.57.02h0c-.19,0-.38-.01-.57-.02ZM365.8,576.95c.13.02.27.04.4.05-.13-.01-.27-.03-.4-.05ZM364.83,576.77c.21.05.43.09.64.12-.21-.03-.43-.07-.64-.12ZM353.29,423.6c-.45,1.63-.69,3.33-.69,5.05v132.98c.19,7.4,4.83,13.14,11.34,14.92-6.64-1.82-11.34-7.76-11.34-15.38v-132.52c0-1.72.24-3.42.69-5.05h0ZM543.87,400.2c-.45,1.63-.69,3.33-.69,5.05l-19.65,8.34,19.65-8.34v132.52l-24.89,10.56,24.89-10.56c0,9.95,8.01,17.04,17.89,15.83h.01c-9.89,1.21-17.9-5.88-17.9-15.83v-132.52c0-1.72.24-3.42.69-5.05h0ZM637.49,184.31c41.17.21,73.01,31.73,73.01,74.64,0,38.14-25.14,73.45-59.64,88.09-.05.02-.1.04-.15.06l-43.15,18.31c-7.6,3.23-15.66,5.45-24,6.48h-.02c-25.5,3.13-48.33-5.56-63.68-21.8-.6,7.58-5.76,14.42-12.69,17.36l-.04.02s.02-.01.03-.02l-22.74,9.66-20.54,8.72h.01s-.01,0-.01,0c-1.63.69-3.36,1.17-5.15,1.39l9.83-4.18h.01l-9.84,4.17-131.52,16.15h0c-9.88,1.22-17.89-5.87-17.89-15.82l43.29-18.38c0,9.95,8.01,17.04,17.89,15.83h.01c-9.89,1.21-17.9-5.88-17.9-15.84v-132.51c0-1.72.25-3.42.69-5.05h0c-.45,1.63-.69,3.33-.69,5.05l-43.29,18.38c0-8.16,5.37-15.71,12.75-18.84l.12-.05s-.08.03-.11.04l43.28-18.37c1.63-.69,3.36-1.17,5.15-1.39h-.01.01l131.53-16.15c6.33-.77,11.89,1.86,15.07,6.46.09.13.18.26.26.4.29.44.55.9.8,1.38,1.13,2.22,1.76,4.8,1.76,7.6h0v24.59c10.31-13.43,24-24.28,39.6-30.9l.41-.17c-.14.06-.27.12-.41.17l43.29-18.37c2.28-.97,4.6-1.84,6.95-2.62.9-.3,1.8-.58,2.7-.85.45-.14.89-.26,1.33-.39,4.25-1.19,8.61-2.08,13.04-2.62h.01c3.61-.45,7.16-.65,10.65-.63ZM352.6,369.16l-43.29,18.37v-132.51l43.29-18.38v132.52ZM554.05,236.58c-6.78,12.86-10.71,27.22-10.87,42.03v1.98c.59,45.97,37.81,78.55,83.64,72.93h.01c-46.2,5.66-83.65-27.48-83.65-74.02,0-15.12,3.95-29.8,10.87-42.92ZM360.67,220.58s-.02,0-.02.02h.01s.01-.01.01-.02h0Z"/>
      <path class="st8" d="M327.19,429.15l131.53-16.15c8.59-1.05,15.56,5.11,15.56,13.77v132.52c0,8.66-6.97,16.53-15.56,17.59l-131.53,16.14c-8.59,1.06-15.56-5.1-15.56-13.76v-132.52c0-8.66,6.97-16.53,15.56-17.59ZM517.77,405.75l131.53-16.14c8.59-1.06,15.56,5.1,15.56,13.76v132.52c0,8.65-6.97,16.53-15.56,17.59l-131.53,16.14c-8.59,1.06-15.56-5.1-15.56-13.76v-132.52c0-8.66,6.97-16.53,15.56-17.59ZM327.19,237.14l131.53-16.15c8.59-1.05,15.56,5.11,15.56,13.77v132.51c0,8.66-6.97,16.54-15.56,17.59l-131.53,16.15c-8.59,1.06-15.56-5.11-15.56-13.76v-132.52c0-8.66,6.97-16.53,15.56-17.59ZM583.54,205.67c44.91-5.52,81.32,26.7,81.32,71.95s-36.41,86.4-81.32,91.92c-44.92,5.51-81.33-26.7-81.33-71.95s36.41-86.41,81.33-91.92Z"/>
    </g>
  </g>
</svg>