<?xml version="1.0" standalone="no"?><!DOCTYPE svg PUBLIC "-//W3C//DTD SVG 1.1//EN" "http://www.w3.org/Graphics/SVG/1.1/DTD/svg11.dtd"><svg class="icon" width="48px" height="48.00px" viewBox="0 0 1024 1024" version="1.1" xmlns="http://www.w3.org/2000/svg"><path d="M511.999988 970.477711c253.199299 0 458.477711-205.278412 458.477711-458.477711 0-253.219233-205.278412-458.477711-458.477711-458.477711-253.219233 0-458.477711 205.258478-458.477711 458.477711 0 253.199299 205.258478 458.477711 458.477711 458.477711z m0-103.556161c196.009188 0 354.92155-158.912361 354.921549-354.92155 0-196.009188-158.912361-354.92155-354.921549-354.92155-196.009188 0-354.92155 158.912361-354.92155 354.92155 0 196.009188 158.912361 354.92155 354.92155 354.92155z" fill="#CBE9F7" /><path d="M866.722199 512q0 8.631341-0.41861 17.242749-0.438544 8.611407-1.275764 17.202881-0.83722 8.57154-2.112984 17.123146-1.25583 8.531672-2.950205 16.983609-1.67444 8.471871-3.787424 16.844072-2.09305 8.372202-4.584777 16.624801-2.511661 8.252599-5.421997 16.36566-2.890403 8.132996-6.199416 16.106522-3.309013 7.973525-6.976835 15.747712-3.707689 7.814055-7.774187 15.428772-4.066498 7.594783-8.491805 15.010162-4.44524 7.375511-9.229356 14.551684-4.784115 7.176173-9.946973 14.113139-5.12299 6.936967-10.604788 13.594861-5.461865 6.677828-11.262605 13.076582-5.780806 6.37882-11.900487 12.478567-6.099747 6.099747-12.478567 11.900487-6.398754 5.780806-13.076582 11.262605-6.657894 5.481799-13.59486 10.604788-6.917033 5.142924-14.093207 9.946973-7.176173 4.784115-14.571617 9.229356-7.415379 4.425307-15.010162 8.491804-7.614717 4.066498-15.408838 7.774188-7.794121 3.667822-15.767646 6.976834-7.973525 3.309013-16.106522 6.199416-8.113062 2.910337-16.36566 5.421998-8.252599 2.491727-16.624801 4.584777-8.372202 2.112984-16.844072 3.787424-8.451937 1.694374-16.983609 2.950205-8.531672 1.275764-17.123146 2.112984-8.57154 0.83722-17.202881 1.275764-8.611407 0.41861-17.242749 0.41861t-17.242749-0.41861q-8.611407-0.438544-17.202881-1.275764-8.57154-0.83722-17.123145-2.112984-8.531672-1.25583-16.98361-2.950205-8.471871-1.67444-16.844072-3.787424-8.372202-2.09305-16.6248-4.584777-8.252599-2.511661-16.365661-5.421998-8.132996-2.890403-16.106522-6.199416-7.973525-3.309013-15.747712-6.976834-7.814055-3.707689-15.428772-7.774188-7.594783-4.066498-15.010162-8.491804-7.375511-4.44524-14.551683-9.229356-7.176173-4.784115-14.11314-9.946973-6.936967-5.12299-13.594861-10.604788-6.677828-5.461865-13.076582-11.262605-6.37882-5.780806-12.478567-11.900487-6.099747-6.099747-11.900487-12.478567-5.780806-6.398754-11.262604-13.076582-5.481799-6.657894-10.624723-13.594861-5.12299-6.917033-9.927039-14.093206-4.784115-7.176173-9.229356-14.571617-4.425307-7.415379-8.491804-15.010162-4.066498-7.614717-7.774188-15.408838-3.667822-7.794121-6.976834-15.767646-3.309013-7.973525-6.199416-16.106522-2.910337-8.113062-5.421998-16.36566-2.511661-8.252599-4.584777-16.624801-2.112984-8.372202-3.787424-16.844072-1.694374-8.451937-2.950205-16.983609-1.275764-8.531672-2.112984-17.123146-0.857154-8.57154-1.275764-17.202881-0.41861-8.611407-0.41861-17.242749t0.41861-17.242749q0.41861-8.611407 1.275764-17.202881 0.83722-8.57154 2.112984-17.123146 1.25583-8.531672 2.950205-16.983609 1.67444-8.471871 3.787424-16.844072 2.073117-8.372202 4.584777-16.624801t5.421998-16.36566q2.890403-8.132996 6.199416-16.106522 3.309013-7.973525 6.976834-15.747712 3.707689-7.814055 7.774188-15.428772 4.066498-7.594783 8.491804-15.010162 4.44524-7.375511 9.229356-14.551684 4.784115-7.176173 9.927039-14.113139t10.624723-13.594861q5.461865-6.677828 11.262604-13.076582 5.780806-6.37882 11.900487-12.478567 6.099747-6.099747 12.478567-11.900487 6.398754-5.780806 13.076582-11.262605 6.657894-5.481799 13.594861-10.624722 6.917033-5.12299 14.093206-9.927039 7.176173-4.784115 14.571617-9.229356 7.415379-4.425307 15.010162-8.491804 7.614717-4.066498 15.408838-7.774188 7.794121-3.667822 15.767646-6.976834 7.973525-3.309013 16.106522-6.199416 8.113062-2.910337 16.365661-5.421998 8.252599-2.491727 16.6248-4.584777 8.372202-2.112984 16.844072-3.787424 8.451937-1.694374 16.98361-2.950205 8.531672-1.275764 17.123145-2.112984 8.57154-0.857154 17.202881-1.275764 8.611407-0.41861 17.242749-0.41861t17.242749 0.41861q8.611407 0.41861 17.202881 1.275764 8.57154 0.83722 17.123146 2.112984 8.531672 1.25583 16.983609 2.950205 8.471871 1.67444 16.844072 3.787424 8.372202 2.09305 16.624801 4.584777 8.252599 2.511661 16.36566 5.421998 8.132996 2.890403 16.106522 6.199416 7.973525 3.309013 15.747712 6.976834 7.814055 3.707689 15.428772 7.774188 7.594783 4.066498 15.010162 8.491804 7.375511 4.44524 14.551684 9.229356 7.176173 4.784115 14.11314 9.927039t13.59486 10.624722q6.677828 5.461865 13.076582 11.262605 6.37882 5.780806 12.478567 11.900487 6.099747 6.099747 11.900487 12.478567 5.780806 6.398754 11.262605 13.076582 5.481799 6.657894 10.604788 13.594861 5.142924 6.917033 9.946973 14.093206 4.784115 7.176173 9.229356 14.571617 4.425307 7.415379 8.491805 15.010162 4.066498 7.614717 7.774187 15.408838 3.667822 7.794121 6.976835 15.767646 3.309013 7.973525 6.199416 16.106522 2.910337 8.113062 5.421997 16.36566 2.491727 8.252599 4.584777 16.624801 2.112984 8.372202 3.787424 16.844072 1.694374 8.451937 2.950205 16.983609 1.275764 8.531672 2.112984 17.123146 0.83722 8.57154 1.275764 17.202881 0.41861 8.611407 0.41861 17.242749z" fill="#FFFFFF" /><path d="M615.157473 622.433327a170.852716 170.852716 0 0 0-304.189994 42.658361c-11.960288-3.18941-24.518591-4.983453-37.47557-4.983454-24.717929 0-47.841152 6.179482-68.173642 17.14308a349.439751 349.439751 0 0 1-41.262994-165.251314c0-193.956005 157.477127-351.433132 351.433132-351.433132 193.956005 0 351.433132 157.477127 351.433132 351.433132 0 60.997469-15.548375 118.406852-42.857699 168.241386a160.666537 160.666537 0 0 0-81.329959-21.927195c-15.747713 0-30.897411 2.192719-45.249756 6.37882h-0.199339a82.246915 82.246915 0 0 0-82.127311-42.259684z" fill="#000000" /><path d="M625.12438 621.635974c-3.388748 0-6.777497 0.199338-9.966907 0.598015l-0.079736 0.079735a170.753047 170.753047 0 0 0-141.649678-75.230212h-0.199338a170.852716 170.852716 0 0 0-162.460581 117.948374 145.3175 145.3175 0 0 0-37.276231-4.923652h-0.199338a142.925443 142.925443 0 0 0-68.014172 17.063345 349.439751 349.439751 0 0 1-41.223126-165.171579c0-193.896204 157.377458-351.333463 351.233794-351.433132h0.199338c193.856336 0.099669 351.233794 157.536928 351.233794 351.433132 0 60.877866-15.548375 118.167646-42.837765 168.141717a160.686471 160.686471 0 0 0-81.150555-21.827526c-15.747713 0-30.897411 2.192719-45.249756 6.37882h-0.199339a82.645591 82.645591 0 0 0-41.063655-36.757952 79.814989 79.814989 0 0 0-31.096749-6.299085z" fill="#0051CD" /><path d="M354.124185 199.776679a349.639089 349.639089 0 0 1 161.36422-39.209811c193.956005 0 351.433132 157.477127 351.433132 351.433132 0 37.674908-5.940276 73.994316-16.903873 108.001402a351.413198 351.413198 0 0 1-155.982091 39.269612 82.187113 82.187113 0 0 0-78.8781-36.837687 170.753047 170.753047 0 0 0-141.729414-75.349815 171.231458 171.231458 0 0 0-38.292856 4.305703 351.433132 351.433132 0 0 1-81.011018-351.612536z" fill="#056FEE" /><path d="M490.690741 161.424022c8.172864-0.558147 16.46533-0.857154 24.797664-0.857154 187.776523 0 341.326689 147.570021 350.954721 332.954487a262.129648 262.129648 0 0 1-137.26424 38.811135c-144.779288 0-262.129648-117.35036-262.129648-262.129648 0-37.535371 8.053261-74.632198 23.641503-108.77882z" fill="#02C0FA" /><path d="M636.107911 181.856181a352.948102 352.948102 0 0 1 199.617208 185.30473 136.546623 136.546623 0 1 1-199.617208-185.30473z" fill="#00DDFF" /></svg>