<?xml version="1.0" standalone="no"?><!DOCTYPE svg PUBLIC "-//W3C//DTD SVG 1.1//EN" "http://www.w3.org/Graphics/SVG/1.1/DTD/svg11.dtd"><svg class="icon" width="48px" height="44.08px" viewBox="0 0 1115 1024" version="1.1" xmlns="http://www.w3.org/2000/svg"><path d="M487.904793 1011.46451L29.291025 800.569127c-39.030959-18.447114-39.030959-46.86564 0-63.603369l159.685055-73.432333 297.219328 137.249375a182.619304 182.619304 0 0 0 139.243658 0l297.219328-137.249375 159.969953 73.361109c39.030959 18.447114 39.030959 46.86564 0 63.603369L624.014579 1011.393285a190.382761 190.382761 0 0 1-135.896113 0z" fill="#FF6F3D" /><path d="M487.904793 751.994102L29.291025 541.098719c-39.030959-18.375889-39.030959-46.86564 0-63.603369l156.266285-71.936621 302.276259 138.958761a182.619304 182.619304 0 0 0 139.243658 0l302.347483-138.958761 156.266285 72.007846c39.030959 18.447114 39.030959 46.86564 0 63.603369L626.79233 751.994102a182.263182 182.263182 0 0 1-139.243659 0z" fill="#95C038" /><path d="M487.904793 499.218785L29.291025 288.252179c-39.030959-18.447114-39.030959-46.86564 0-63.603369L487.904793 13.824652a182.191958 182.191958 0 0 1 138.887537 0l458.613767 210.895382c39.030959 18.375889 39.030959 46.86564 0 63.603369L626.79233 499.218785a199.428257 199.428257 0 0 1-139.243659 0z" fill="#5DC0E8" /></svg>